<svg viewBox="0 0 172 49" fill="none" xmlns="http://www.w3.org/2000/svg">
<g id="logo">
<g id="icone" clip-path="url(#clip0_105_4332)">
<path id="icon-logo"  d="M2.33325 25L18.9999 1.66669M2.33325 25L18.9999 46.6667M2.33325 25C15.2252 27.2544 22.4865 27.3298 35.6666 25M18.9999 1.66669V46.6667M18.9999 1.66669L24.9523 10M35.6666 25L18.9999 46.6667M35.6666 25L29.7142 16.6667" stroke="url(#paint0_linear_105_4332)" stroke-width="3" stroke-linecap="round" stroke-linejoin="round"/>
</g>
<path id="Crypto&#194;&#174;" d="M72.9287 21.375H67.9514C67.8605 20.7311 67.6749 20.1591 67.3946 19.6591C67.1143 19.1515 66.7545 18.7197 66.3151 18.3636C65.8757 18.0076 65.3681 17.7348 64.7923 17.5455C64.2241 17.3561 63.6067 17.2614 62.9401 17.2614C61.7355 17.2614 60.6863 17.5606 59.7923 18.1591C58.8984 18.75 58.2052 19.6136 57.7128 20.75C57.2204 21.8788 56.9741 23.25 56.9741 24.8636C56.9741 26.5227 57.2204 27.9167 57.7128 29.0455C58.2128 30.1742 58.9098 31.0265 59.8037 31.6023C60.6976 32.178 61.7317 32.4659 62.906 32.4659C63.5651 32.4659 64.1749 32.3788 64.7355 32.2045C65.3037 32.0303 65.8075 31.7765 66.2469 31.4432C66.6863 31.1023 67.0499 30.6894 67.3378 30.2045C67.6332 29.7197 67.8378 29.1667 67.9514 28.5455L72.9287 28.5682C72.7999 29.6364 72.4779 30.6667 71.9628 31.6591C71.4552 32.6439 70.7696 33.5265 69.906 34.3068C69.0499 35.0795 68.0272 35.6932 66.8378 36.1477C65.656 36.5947 64.3188 36.8182 62.8264 36.8182C60.7507 36.8182 58.8946 36.3485 57.2582 35.4091C55.6295 34.4697 54.3416 33.1098 53.3946 31.3295C52.4552 29.5492 51.9855 27.3939 51.9855 24.8636C51.9855 22.3258 52.4628 20.1667 53.4173 18.3864C54.3719 16.6061 55.6673 15.25 57.3037 14.3182C58.9401 13.3788 60.781 12.9091 62.8264 12.9091C64.1749 12.9091 65.4249 13.0985 66.5764 13.4773C67.7355 13.8561 68.762 14.4091 69.656 15.1364C70.5499 15.8561 71.2772 16.7386 71.8378 17.7841C72.406 18.8295 72.7696 20.0265 72.9287 21.375ZM76.3662 36.5V19.0455H81.0594V22.0909H81.2412C81.5594 21.0076 82.0935 20.1894 82.8435 19.6364C83.5935 19.0758 84.4571 18.7955 85.4344 18.7955C85.6768 18.7955 85.9382 18.8106 86.2185 18.8409C86.4988 18.8712 86.745 18.9129 86.9571 18.9659V23.2614C86.7298 23.1932 86.4154 23.1326 86.0139 23.0795C85.6124 23.0265 85.245 23 84.9116 23C84.1995 23 83.5632 23.1553 83.0026 23.4659C82.4495 23.7689 82.0101 24.1932 81.6844 24.7386C81.3662 25.2841 81.2071 25.9129 81.2071 26.625V36.5H76.3662ZM92.9798 43.0455C92.3662 43.0455 91.7904 42.9962 91.2526 42.8977C90.7223 42.8068 90.2829 42.6894 89.9344 42.5455L91.0253 38.9318C91.5935 39.1061 92.1048 39.2008 92.5594 39.2159C93.0215 39.2311 93.4192 39.125 93.7526 38.8977C94.0935 38.6705 94.37 38.2841 94.5821 37.7386L94.8662 37L88.6048 19.0455H93.6957L97.3094 31.8636H97.4912L101.139 19.0455H106.264L99.4798 38.3864C99.1541 39.3258 98.7109 40.1439 98.1503 40.8409C97.5973 41.5455 96.8965 42.0871 96.048 42.4659C95.1995 42.8523 94.1768 43.0455 92.9798 43.0455ZM108.741 43.0455V19.0455H113.514V21.9773H113.73C113.942 21.5076 114.249 21.0303 114.65 20.5455C115.059 20.053 115.59 19.6439 116.241 19.3182C116.9 18.9848 117.718 18.8182 118.696 18.8182C119.968 18.8182 121.143 19.1515 122.218 19.8182C123.294 20.4773 124.154 21.4735 124.798 22.8068C125.442 24.1326 125.764 25.7955 125.764 27.7955C125.764 29.7424 125.45 31.3864 124.821 32.7273C124.2 34.0606 123.351 35.072 122.275 35.7614C121.207 36.4432 120.01 36.7841 118.684 36.7841C117.745 36.7841 116.946 36.6288 116.287 36.3182C115.635 36.0076 115.101 35.6174 114.684 35.1477C114.268 34.6705 113.95 34.1894 113.73 33.7045H113.582V43.0455H108.741ZM113.48 27.7727C113.48 28.8106 113.624 29.7159 113.912 30.4886C114.2 31.2614 114.616 31.8636 115.162 32.2955C115.707 32.7197 116.37 32.9318 117.15 32.9318C117.938 32.9318 118.605 32.7159 119.15 32.2841C119.696 31.8447 120.109 31.2386 120.389 30.4659C120.677 29.6856 120.821 28.7879 120.821 27.7727C120.821 26.7652 120.681 25.8788 120.4 25.1136C120.12 24.3485 119.707 23.75 119.162 23.3182C118.616 22.8864 117.946 22.6705 117.15 22.6705C116.362 22.6705 115.696 22.8788 115.15 23.2955C114.612 23.7121 114.2 24.303 113.912 25.0682C113.624 25.8333 113.48 26.7348 113.48 27.7727ZM138.275 19.0455V22.6818H127.764V19.0455H138.275ZM130.15 14.8636H134.991V31.1364C134.991 31.5833 135.059 31.9318 135.196 32.1818C135.332 32.4242 135.521 32.5947 135.764 32.6932C136.014 32.7917 136.302 32.8409 136.628 32.8409C136.855 32.8409 137.082 32.822 137.309 32.7841C137.537 32.7386 137.711 32.7045 137.832 32.6818L138.593 36.2841C138.351 36.3598 138.01 36.447 137.571 36.5455C137.131 36.6515 136.597 36.7159 135.968 36.7386C134.802 36.7841 133.779 36.6288 132.9 36.2727C132.029 35.9167 131.351 35.3636 130.866 34.6136C130.381 33.8636 130.143 32.9167 130.15 31.7727V14.8636ZM149.128 36.8409C147.362 36.8409 145.836 36.4659 144.548 35.7159C143.268 34.9583 142.279 33.9053 141.582 32.5568C140.885 31.2008 140.537 29.6288 140.537 27.8409C140.537 26.0379 140.885 24.4621 141.582 23.1136C142.279 21.7576 143.268 20.7045 144.548 19.9545C145.836 19.197 147.362 18.8182 149.128 18.8182C150.893 18.8182 152.415 19.197 153.696 19.9545C154.984 20.7045 155.976 21.7576 156.673 23.1136C157.37 24.4621 157.718 26.0379 157.718 27.8409C157.718 29.6288 157.37 31.2008 156.673 32.5568C155.976 33.9053 154.984 34.9583 153.696 35.7159C152.415 36.4659 150.893 36.8409 149.128 36.8409ZM149.15 33.0909C149.953 33.0909 150.624 32.8636 151.162 32.4091C151.7 31.947 152.105 31.3182 152.378 30.5227C152.658 29.7273 152.798 28.822 152.798 27.8068C152.798 26.7917 152.658 25.8864 152.378 25.0909C152.105 24.2955 151.7 23.6667 151.162 23.2045C150.624 22.7424 149.953 22.5114 149.15 22.5114C148.34 22.5114 147.658 22.7424 147.105 23.2045C146.559 23.6667 146.146 24.2955 145.866 25.0909C145.593 25.8864 145.457 26.7917 145.457 27.8068C145.457 28.822 145.593 29.7273 145.866 30.5227C146.146 31.3182 146.559 31.947 147.105 32.4091C147.658 32.8636 148.34 33.0909 149.15 33.0909ZM163.284 19.2545V14.2227H165.718C166.073 14.2227 166.387 14.2909 166.659 14.4273C166.937 14.5636 167.15 14.7568 167.3 15.0068C167.455 15.2568 167.532 15.5568 167.532 15.9068C167.532 16.2614 167.453 16.5636 167.293 16.8136C167.134 17.0591 166.914 17.2477 166.632 17.3795C166.355 17.5068 166.034 17.5705 165.671 17.5705H164.034V16.5818H165.412C165.616 16.5818 165.782 16.525 165.909 16.4114C166.037 16.2977 166.1 16.1295 166.1 15.9068C166.1 15.675 166.037 15.5068 165.909 15.4023C165.782 15.2932 165.618 15.2386 165.418 15.2386H164.662V19.2545H163.284ZM166.557 16.95L167.668 19.2545H166.162L165.139 16.95H166.557ZM165.282 22.2545C164.528 22.2545 163.821 22.1136 163.162 21.8318C162.503 21.55 161.923 21.1591 161.423 20.6591C160.923 20.1591 160.532 19.5795 160.25 18.9205C159.968 18.2614 159.828 17.5545 159.828 16.8C159.828 16.0455 159.968 15.3386 160.25 14.6795C160.532 14.0205 160.923 13.4409 161.423 12.9409C161.923 12.4409 162.503 12.05 163.162 11.7682C163.821 11.4864 164.528 11.3455 165.282 11.3455C166.037 11.3455 166.743 11.4864 167.403 11.7682C168.062 12.05 168.641 12.4409 169.141 12.9409C169.641 13.4409 170.032 14.0205 170.314 14.6795C170.596 15.3386 170.737 16.0455 170.737 16.8C170.737 17.5545 170.596 18.2614 170.314 18.9205C170.032 19.5795 169.641 20.1591 169.141 20.6591C168.641 21.1591 168.062 21.55 167.403 21.8318C166.743 22.1136 166.037 22.2545 165.282 22.2545ZM165.282 20.7682C166.018 20.7682 166.687 20.5909 167.287 20.2364C167.887 19.8773 168.364 19.3977 168.718 18.7977C169.078 18.1977 169.257 17.5318 169.257 16.8C169.257 16.0682 169.078 15.4023 168.718 14.8023C168.364 14.2023 167.884 13.725 167.28 13.3705C166.68 13.0114 166.014 12.8318 165.282 12.8318C164.55 12.8318 163.884 13.0114 163.284 13.3705C162.684 13.725 162.205 14.2023 161.846 14.8023C161.491 15.4023 161.314 16.0682 161.314 16.8C161.314 17.5318 161.491 18.1977 161.846 18.7977C162.205 19.3977 162.684 19.8773 163.284 20.2364C163.884 20.5909 164.55 20.7682 165.282 20.7682Z" fill="white"/>
</g>
<defs>
<linearGradient id="paint0_linear_105_4332" x1="2.33325" y1="1.66669" x2="45.3802" y2="33.5533" gradientUnits="userSpaceOnUse">
<stop stop-color="#9A4DFF"/>
<stop offset="1" stop-color="#5EEBFF"/>
</linearGradient>
<clipPath id="clip0_105_4332">
<rect width="38" height="49" fill="white"/>
</clipPath>
</defs>
</svg>
