<svg width="180" height="52" viewBox="0 0 180 52" fill="none" xmlns="http://www.w3.org/2000/svg">
<g id="Logo">
<g id="icon-logo">
<path id="logo" d="M23.8287 12.437C24.3462 13.0839 25.2901 13.1888 25.937 12.6713C26.5839 12.1538 26.6888 11.2099 26.1713 10.563L23.8287 12.437ZM19 4L20.1713 3.06296C19.8791 2.69769 19.4332 2.48965 18.9655 2.5004C18.4979 2.51114 18.062 2.73944 17.7869 3.11774L19 4ZM3 26L1.7869 25.1177C1.40437 25.6437 1.40437 26.3563 1.7869 26.8823L3 26ZM19 48L17.7869 48.8823C18.0669 49.2672 18.513 49.4965 18.989 49.5C19.465 49.5035 19.9144 49.2808 20.2 48.9L19 48ZM35.5 26L36.7 26.9C37.0964 26.3714 37.1003 25.6457 36.7096 25.113L35.5 26ZM31.2096 17.613C30.7197 16.9449 29.781 16.8005 29.113 17.2904C28.4449 17.7803 28.3005 18.719 28.7904 19.387L31.2096 17.613ZM26.1713 10.563L20.1713 3.06296L17.8287 4.93704L23.8287 12.437L26.1713 10.563ZM17.7869 3.11774L1.7869 25.1177L4.2131 26.8823L20.2131 4.88226L17.7869 3.11774ZM1.7869 26.8823L17.7869 48.8823L20.2131 47.1177L4.2131 25.1177L1.7869 26.8823ZM20.2 48.9L36.7 26.9L34.3 25.1L17.8 47.1L20.2 48.9ZM36.7096 25.113L31.2096 17.613L28.7904 19.387L34.2904 26.887L36.7096 25.113ZM35.5 26C35.1315 24.546 35.1316 24.546 35.1316 24.5459C35.1316 24.546 35.1316 24.546 35.1315 24.546C35.1313 24.546 35.131 24.5461 35.1306 24.5462C35.1297 24.5464 35.1281 24.5468 35.126 24.5473C35.1218 24.5484 35.1152 24.5501 35.1063 24.5523C35.0885 24.5568 35.0613 24.5636 35.0253 24.5725C34.9532 24.5904 34.8455 24.6169 34.7056 24.6507C34.4256 24.7185 34.0166 24.8157 33.5047 24.9324C32.4804 25.1661 31.0473 25.4774 29.414 25.7877C26.1204 26.4132 22.1136 27.0144 19.0069 27L18.9931 30C22.4036 30.0158 26.6467 29.3669 29.9738 28.735C31.6509 28.4164 33.1208 28.0971 34.172 27.8573C34.6978 27.7373 35.1197 27.6371 35.4111 27.5666C35.5568 27.5313 35.67 27.5035 35.7473 27.4843C35.786 27.4747 35.8157 27.4673 35.836 27.4622C35.8462 27.4597 35.854 27.4577 35.8594 27.4563C35.8622 27.4556 35.8643 27.4551 35.8658 27.4547C35.8666 27.4545 35.8672 27.4544 35.8676 27.4543C35.8678 27.4542 35.8681 27.4541 35.8682 27.4541C35.8684 27.4541 35.8685 27.454 35.5 26ZM19.0069 27C15.9922 26.9861 12.1067 26.3846 8.91355 25.7664C7.33007 25.4598 5.94077 25.154 4.94789 24.9249C4.45173 24.8104 4.05528 24.7153 3.78391 24.649C3.64824 24.6159 3.54389 24.59 3.47402 24.5725C3.43909 24.5638 3.41278 24.5572 3.3955 24.5528C3.38686 24.5506 3.38047 24.549 3.37639 24.548C3.37435 24.5475 3.37289 24.5471 3.37201 24.5469C3.37157 24.5467 3.37127 24.5467 3.37112 24.5466C3.37105 24.5466 3.37105 24.5466 3.37101 24.5466C3.37105 24.5466 3.37112 24.5466 3 26C2.62888 27.4534 2.62903 27.4534 2.62921 27.4534C2.62932 27.4535 2.62954 27.4535 2.62976 27.4536C2.6302 27.4537 2.63079 27.4539 2.63152 27.454C2.63299 27.4544 2.63505 27.4549 2.63768 27.4556C2.64295 27.4569 2.65054 27.4589 2.6604 27.4614C2.68012 27.4663 2.70892 27.4736 2.7464 27.483C2.82135 27.5017 2.93105 27.5289 3.07231 27.5634C3.35479 27.6324 3.76368 27.7305 4.27344 27.8481C5.29242 28.0832 6.71735 28.3969 8.34335 28.7117C11.5691 29.3362 15.6836 29.9847 18.9931 30L19.0069 27ZM20.5 28.5V4H17.5V28.5H20.5ZM20.5 48V28.5H17.5V48H20.5Z" fill="url(#paint0_linear_154_1529)"/>
</g>
<path id="Crypto&#194;&#174;" d="M70.4287 22.875H65.4514C65.3605 22.2311 65.1749 21.6591 64.8946 21.1591C64.6143 20.6515 64.2545 20.2197 63.8151 19.8636C63.3757 19.5076 62.8681 19.2348 62.2923 19.0455C61.7241 18.8561 61.1067 18.7614 60.4401 18.7614C59.2355 18.7614 58.1863 19.0606 57.2923 19.6591C56.3984 20.25 55.7052 21.1136 55.2128 22.25C54.7204 23.3788 54.4741 24.75 54.4741 26.3636C54.4741 28.0227 54.7204 29.4167 55.2128 30.5455C55.7128 31.6742 56.4098 32.5265 57.3037 33.1023C58.1976 33.678 59.2317 33.9659 60.406 33.9659C61.0651 33.9659 61.6749 33.8788 62.2355 33.7045C62.8037 33.5303 63.3075 33.2765 63.7469 32.9432C64.1863 32.6023 64.5499 32.1894 64.8378 31.7045C65.1332 31.2197 65.3378 30.6667 65.4514 30.0455L70.4287 30.0682C70.2999 31.1364 69.9779 32.1667 69.4628 33.1591C68.9552 34.1439 68.2696 35.0265 67.406 35.8068C66.5499 36.5795 65.5272 37.1932 64.3378 37.6477C63.156 38.0947 61.8188 38.3182 60.3264 38.3182C58.2507 38.3182 56.3946 37.8485 54.7582 36.9091C53.1295 35.9697 51.8416 34.6098 50.8946 32.8295C49.9552 31.0492 49.4855 28.8939 49.4855 26.3636C49.4855 23.8258 49.9628 21.6667 50.9173 19.8864C51.8719 18.1061 53.1673 16.75 54.8037 15.8182C56.4401 14.8788 58.281 14.4091 60.3264 14.4091C61.6749 14.4091 62.9249 14.5985 64.0764 14.9773C65.2355 15.3561 66.262 15.9091 67.156 16.6364C68.0499 17.3561 68.7772 18.2386 69.3378 19.2841C69.906 20.3295 70.2696 21.5265 70.4287 22.875ZM73.8662 38V20.5455H78.5594V23.5909H78.7412C79.0594 22.5076 79.5935 21.6894 80.3435 21.1364C81.0935 20.5758 81.9571 20.2955 82.9344 20.2955C83.1768 20.2955 83.4382 20.3106 83.7185 20.3409C83.9988 20.3712 84.245 20.4129 84.4571 20.4659V24.7614C84.2298 24.6932 83.9154 24.6326 83.5139 24.5795C83.1124 24.5265 82.745 24.5 82.4116 24.5C81.6995 24.5 81.0632 24.6553 80.5026 24.9659C79.9495 25.2689 79.5101 25.6932 79.1844 26.2386C78.8662 26.7841 78.7071 27.4129 78.7071 28.125V38H73.8662ZM90.4798 44.5455C89.8662 44.5455 89.2904 44.4962 88.7526 44.3977C88.2223 44.3068 87.7829 44.1894 87.4344 44.0455L88.5253 40.4318C89.0935 40.6061 89.6048 40.7008 90.0594 40.7159C90.5215 40.7311 90.9192 40.625 91.2526 40.3977C91.5935 40.1705 91.87 39.7841 92.0821 39.2386L92.3662 38.5L86.1048 20.5455H91.1957L94.8094 33.3636H94.9912L98.6389 20.5455H103.764L96.9798 39.8864C96.6541 40.8258 96.2109 41.6439 95.6503 42.3409C95.0973 43.0455 94.3965 43.5871 93.548 43.9659C92.6995 44.3523 91.6768 44.5455 90.4798 44.5455ZM106.241 44.5455V20.5455H111.014V23.4773H111.23C111.442 23.0076 111.749 22.5303 112.15 22.0455C112.559 21.553 113.09 21.1439 113.741 20.8182C114.4 20.4848 115.218 20.3182 116.196 20.3182C117.468 20.3182 118.643 20.6515 119.718 21.3182C120.794 21.9773 121.654 22.9735 122.298 24.3068C122.942 25.6326 123.264 27.2955 123.264 29.2955C123.264 31.2424 122.95 32.8864 122.321 34.2273C121.7 35.5606 120.851 36.572 119.775 37.2614C118.707 37.9432 117.51 38.2841 116.184 38.2841C115.245 38.2841 114.446 38.1288 113.787 37.8182C113.135 37.5076 112.601 37.1174 112.184 36.6477C111.768 36.1705 111.45 35.6894 111.23 35.2045H111.082V44.5455H106.241ZM110.98 29.2727C110.98 30.3106 111.124 31.2159 111.412 31.9886C111.7 32.7614 112.116 33.3636 112.662 33.7955C113.207 34.2197 113.87 34.4318 114.65 34.4318C115.438 34.4318 116.105 34.2159 116.65 33.7841C117.196 33.3447 117.609 32.7386 117.889 31.9659C118.177 31.1856 118.321 30.2879 118.321 29.2727C118.321 28.2652 118.181 27.3788 117.9 26.6136C117.62 25.8485 117.207 25.25 116.662 24.8182C116.116 24.3864 115.446 24.1705 114.65 24.1705C113.862 24.1705 113.196 24.3788 112.65 24.7955C112.112 25.2121 111.7 25.803 111.412 26.5682C111.124 27.3333 110.98 28.2348 110.98 29.2727ZM135.775 20.5455V24.1818H125.264V20.5455H135.775ZM127.65 16.3636H132.491V32.6364C132.491 33.0833 132.559 33.4318 132.696 33.6818C132.832 33.9242 133.021 34.0947 133.264 34.1932C133.514 34.2917 133.802 34.3409 134.128 34.3409C134.355 34.3409 134.582 34.322 134.809 34.2841C135.037 34.2386 135.211 34.2045 135.332 34.1818L136.093 37.7841C135.851 37.8598 135.51 37.947 135.071 38.0455C134.631 38.1515 134.097 38.2159 133.468 38.2386C132.302 38.2841 131.279 38.1288 130.4 37.7727C129.529 37.4167 128.851 36.8636 128.366 36.1136C127.881 35.3636 127.643 34.4167 127.65 33.2727V16.3636ZM146.628 38.3409C144.862 38.3409 143.336 37.9659 142.048 37.2159C140.768 36.4583 139.779 35.4053 139.082 34.0568C138.385 32.7008 138.037 31.1288 138.037 29.3409C138.037 27.5379 138.385 25.9621 139.082 24.6136C139.779 23.2576 140.768 22.2045 142.048 21.4545C143.336 20.697 144.862 20.3182 146.628 20.3182C148.393 20.3182 149.915 20.697 151.196 21.4545C152.484 22.2045 153.476 23.2576 154.173 24.6136C154.87 25.9621 155.218 27.5379 155.218 29.3409C155.218 31.1288 154.87 32.7008 154.173 34.0568C153.476 35.4053 152.484 36.4583 151.196 37.2159C149.915 37.9659 148.393 38.3409 146.628 38.3409ZM146.65 34.5909C147.453 34.5909 148.124 34.3636 148.662 33.9091C149.2 33.447 149.605 32.8182 149.878 32.0227C150.158 31.2273 150.298 30.322 150.298 29.3068C150.298 28.2917 150.158 27.3864 149.878 26.5909C149.605 25.7955 149.2 25.1667 148.662 24.7045C148.124 24.2424 147.453 24.0114 146.65 24.0114C145.84 24.0114 145.158 24.2424 144.605 24.7045C144.059 25.1667 143.646 25.7955 143.366 26.5909C143.093 27.3864 142.957 28.2917 142.957 29.3068C142.957 30.322 143.093 31.2273 143.366 32.0227C143.646 32.8182 144.059 33.447 144.605 33.9091C145.158 34.3636 145.84 34.5909 146.65 34.5909ZM160.784 20.7545V15.7227H163.218C163.573 15.7227 163.887 15.7909 164.159 15.9273C164.437 16.0636 164.65 16.2568 164.8 16.5068C164.955 16.7568 165.032 17.0568 165.032 17.4068C165.032 17.7614 164.953 18.0636 164.793 18.3136C164.634 18.5591 164.414 18.7477 164.132 18.8795C163.855 19.0068 163.534 19.0705 163.171 19.0705H161.534V18.0818H162.912C163.116 18.0818 163.282 18.025 163.409 17.9114C163.537 17.7977 163.6 17.6295 163.6 17.4068C163.6 17.175 163.537 17.0068 163.409 16.9023C163.282 16.7932 163.118 16.7386 162.918 16.7386H162.162V20.7545H160.784ZM164.057 18.45L165.168 20.7545H163.662L162.639 18.45H164.057ZM162.782 23.7545C162.028 23.7545 161.321 23.6136 160.662 23.3318C160.003 23.05 159.423 22.6591 158.923 22.1591C158.423 21.6591 158.032 21.0795 157.75 20.4205C157.468 19.7614 157.328 19.0545 157.328 18.3C157.328 17.5455 157.468 16.8386 157.75 16.1795C158.032 15.5205 158.423 14.9409 158.923 14.4409C159.423 13.9409 160.003 13.55 160.662 13.2682C161.321 12.9864 162.028 12.8455 162.782 12.8455C163.537 12.8455 164.243 12.9864 164.903 13.2682C165.562 13.55 166.141 13.9409 166.641 14.4409C167.141 14.9409 167.532 15.5205 167.814 16.1795C168.096 16.8386 168.237 17.5455 168.237 18.3C168.237 19.0545 168.096 19.7614 167.814 20.4205C167.532 21.0795 167.141 21.6591 166.641 22.1591C166.141 22.6591 165.562 23.05 164.903 23.3318C164.243 23.6136 163.537 23.7545 162.782 23.7545ZM162.782 22.2682C163.518 22.2682 164.187 22.0909 164.787 21.7364C165.387 21.3773 165.864 20.8977 166.218 20.2977C166.578 19.6977 166.757 19.0318 166.757 18.3C166.757 17.5682 166.578 16.9023 166.218 16.3023C165.864 15.7023 165.384 15.225 164.78 14.8705C164.18 14.5114 163.514 14.3318 162.782 14.3318C162.05 14.3318 161.384 14.5114 160.784 14.8705C160.184 15.225 159.705 15.7023 159.346 16.3023C158.991 16.9023 158.814 17.5682 158.814 18.3C158.814 19.0318 158.991 19.6977 159.346 20.2977C159.705 20.8977 160.184 21.3773 160.784 21.7364C161.384 22.0909 162.05 22.2682 162.782 22.2682Z" fill="white"/>
</g>
<defs>
<linearGradient id="paint0_linear_154_1529" x1="3" y1="4" x2="45.0553" y2="35.0636" gradientUnits="userSpaceOnUse">
<stop stop-color="#9A4DFF"/>
<stop offset="1" stop-color="#5EEBFF"/>
</linearGradient>
</defs>
</svg>
