<svg width="1440" height="1534" viewBox="0 0 1440 1534" fill="none" xmlns="http://www.w3.org/2000/svg">
<g id="3D Morph Lines 2" style="mix-blend-mode:overlay" opacity="0.1">
<path id="Vector" d="M0.0632324 29.2109C479.77 14.2591 960.007 10.5483 1439.88 1C1439.18 511.69 1439.18 1022.38 1439.88 1533.07C959.926 1532.55 479.974 1533.66 0.0632324 1533.07C0.321556 1031.74 0.321556 530.454 0.0632324 29.2109Z" stroke="white" stroke-miterlimit="10"/>
<path id="Vector_2" d="M0.0632324 1396.34C121.183 1394.66 231.066 1324.72 353.083 1333.6C480.912 1342.97 569.442 1474.48 700.331 1476.43C831.219 1478.39 961.72 1453.47 1092.67 1450.39C1149.65 1449 1201.61 1446.27 1256.98 1430.34C1318.57 1412.65 1375.41 1394.71 1439.88 1393.77" stroke="white" stroke-miterlimit="10"/>
<path id="Vector_3" d="M0.0235596 1259.53C70.811 1247.92 112.823 1200.18 164.623 1152.16C200.965 1118.52 253.99 1075.51 304.975 1095.74C387.774 1128.68 446.06 1242.98 496.535 1313.68C538.18 1372.03 592.693 1465.17 667.273 1475.91C740.855 1486.5 829.609 1459.25 902.09 1447.33C989.784 1432.9 1077.8 1415.76 1166.42 1408.49C1225.33 1403.65 1263.86 1396.97 1306.42 1350.7C1348.98 1304.43 1375.76 1264.42 1439.88 1254.44" stroke="white" stroke-miterlimit="10"/>
<path id="Vector_4" d="M0.0235596 1122.84C74.5227 1109.52 108.438 1048.65 153.713 991.032C184.834 951.428 234.819 898.804 288.435 921.72C329.957 939.492 360.874 989.404 385.47 1026.3C420.608 1079.03 451.097 1135.12 483.238 1189.9C521.722 1255.43 575.276 1374.14 656.2 1386.31C734.166 1398.03 830.486 1364.61 906.597 1349.77C1001.02 1331.19 1096.06 1308.25 1191.93 1299.85C1253.11 1294.47 1288.21 1288.61 1323.02 1230.87C1356.51 1175.34 1372.35 1126.7 1439.92 1115.14" stroke="white" stroke-miterlimit="10"/>
<path id="Vector_5" d="M0.0235596 986.147C69.0979 978.552 118.716 941.661 176.819 904.77C218.932 878.1 274.424 847.545 324.961 863.018C404.151 887.301 463.15 988.339 513.625 1050.99C556.84 1104.63 610.089 1181 681.814 1186.97C753.54 1192.93 833.607 1162.68 902.069 1144.63C982.809 1123.32 1064.26 1097.23 1147.23 1087.71C1202.62 1081.37 1245.12 1078.07 1292.88 1044.65C1342.23 1010.06 1378.9 981.438 1439.98 975.84" stroke="white" stroke-miterlimit="10"/>
<path id="Vector_6" d="M0.0632324 849.523C124.181 851.693 246.463 813.413 370.703 822.983C498.268 832.792 581.332 978.794 713.139 973.977C846.168 969.116 963.699 880.902 1094.22 860.829C1147.86 852.583 1203.14 856.641 1257.37 850.087C1318.55 842.687 1378.31 835.483 1440 836.568" stroke="white" stroke-miterlimit="10"/>
<path id="Vector_7" d="M0.0632324 712.741C69.5455 710.94 138.865 712.893 208.326 714.803C262.758 716.3 318.454 711.808 372.559 717.841C496.147 731.664 615.961 799.544 740.874 799.435C862.952 799.435 978.301 721.638 1098.1 702.325C1208.96 684.422 1327.87 699.2 1439.84 697.355" stroke="white" stroke-miterlimit="10"/>
<path id="Vector_8" d="M0.0396729 576.048C110.616 578.543 213.361 631.819 324.569 624.115C509.665 611.29 689.009 542.498 874.35 534.079C982.111 529.174 1090.34 538.419 1198.1 539.46C1279.84 540.285 1358.62 557.602 1439.92 558.058" stroke="white" stroke-miterlimit="10"/>
<path id="Vector_9" d="M0 439.378C102.215 447.256 171.921 550.226 277.97 529.089C413.712 502.072 546.212 436.536 675.061 385.713C742.504 359.107 809.987 332.177 878.531 308.827C916.546 295.806 958.068 279.032 998.489 277.578C1102.99 273.824 1186.95 362.211 1287.33 379.788C1318.8 385.322 1352.22 378.204 1379.1 396.042C1382.2 398.212 1381.14 407.609 1385.22 410.951C1398.35 421.345 1425.27 419.153 1439.79 418.784" stroke="white" stroke-miterlimit="10"/>
<path id="Vector_10" d="M0 302.664C103.071 310.172 181.058 403.659 287.392 383.521C415.874 359.194 541.297 297.412 663.273 249.909C756.698 213.517 866.173 155.316 967.429 152.364C1070.23 149.348 1154.52 232.288 1254.19 247.37C1288.29 252.513 1323.53 246.459 1355.91 260.955C1385.38 274.192 1406.1 278.901 1439.96 279.509" stroke="white" stroke-miterlimit="10"/>
<path id="Vector_11" d="M0.0396729 165.925C114.246 166.164 224.618 207.157 339.191 197.674C502.975 184.197 657.337 98.1106 822.284 95.6802C925.702 94.0743 1025.22 129.707 1128.19 132.962C1231.65 136.239 1336.21 141.924 1439.79 140.34" stroke="white" stroke-miterlimit="10"/>
<path id="Vector_12" d="M1306.64 3.58191C1310.37 140.296 1388.69 257.025 1383.24 395.475C1378.23 522.967 1318.17 639.717 1317.88 768.228C1317.55 904.097 1349.74 1037.32 1354.3 1172.75C1358.48 1297.7 1308.17 1409.29 1306.74 1532.98" stroke="white" stroke-miterlimit="10"/>
<path id="Vector_13" d="M1174.61 6.07971C1192.96 91.6891 1254.02 146.331 1306.84 209.481C1345.29 255.421 1387.44 310.953 1374.69 376.359C1347.1 517.696 1208.3 622.424 1204.73 770.097C1202.85 847.937 1228.67 930.682 1246.01 1005.44C1265.85 1091.03 1289.79 1177.4 1299.03 1265.26C1305.03 1322.88 1295.08 1364.07 1254.96 1404C1213.58 1445.23 1182.09 1469.1 1174.24 1533.05" stroke="white" stroke-miterlimit="10"/>
<path id="Vector_14" d="M1042.2 8.89954C1073.54 149.954 1318 207.483 1285.5 366.419C1254.72 516.892 1077.25 615.977 1077.23 775.13C1077.23 857.463 1105.91 944.396 1125.06 1023.21C1147.18 1114.36 1174.29 1206.39 1185.04 1299.98C1191.54 1356.67 1183.1 1398.05 1134.25 1426.56C1084.07 1455.84 1051.13 1465.78 1041.91 1532.9" stroke="white" stroke-miterlimit="10"/>
<path id="Vector_15" d="M910.775 11.1349C949.176 143.184 1208.67 158.092 1171.82 319.133C1148.87 419.521 1077.6 510.816 1026.49 596.36C985.702 664.782 932.943 741.494 929.7 825.303C923.154 995.349 956.661 1168.37 962.331 1338.37C963.554 1375.26 969.591 1421.25 943.629 1449.96C917.668 1478.67 912.182 1486.85 910.122 1533.01" stroke="white" stroke-miterlimit="10"/>
<path id="Vector_16" d="M780.031 12.8716C827.671 135.133 1102.38 100.239 1060.16 268.05C1029.57 389.466 950.667 501.507 892.035 608.752C846.332 692.408 790.248 781.923 780.928 880.293C765.184 1046.78 741.772 1213.57 731.126 1380.49C729.189 1411.07 722.112 1456.45 748.155 1475.37C752.622 1478.6 760.392 1471.7 766.041 1476.67C778.848 1487.89 777.441 1518.38 778.705 1532.96" stroke="white" stroke-miterlimit="10"/>
<path id="Vector_17" d="M650.713 14.7838C699.23 127.237 928.601 138.608 888.384 290.383C858.018 404.941 794.98 511.231 744.26 616.415C704.839 698.161 656.566 785.68 647.899 878.689C633.745 1032.29 589.837 1182.5 580.701 1336.34C578.314 1376.68 575.255 1416.98 604.602 1446.34C632.603 1474.37 649.143 1486.09 647.878 1533.14" stroke="white" stroke-miterlimit="10"/>
<path id="Vector_18" d="M517.273 19.381C523.758 156.096 575.661 283.522 567.503 421.973C559.57 556.517 525.573 687.59 517.273 822.503C510.95 926.905 444.283 1011.1 435.615 1114.4C423.542 1258.41 510.114 1390.28 517.436 1532.96" stroke="white" stroke-miterlimit="10"/>
<path id="Vector_19" d="M385.265 23.3076C369.888 124.455 338.359 220.784 312.03 319.175C295.246 382.107 270.651 456.324 285.844 522.142C306.748 612.743 391.546 679.277 387.182 778.21C383.776 855.682 304.974 857.462 294.247 929.551C282.5 1008.5 311.643 1103.16 327.081 1178.61C351.003 1295.69 381.125 1412.78 387.427 1532.83" stroke="white" stroke-miterlimit="10"/>
<path id="Vector_20" d="M256.269 25.609C243.87 123.262 214.951 216.228 191.722 311.234C176.284 374.361 157.787 444.151 170.105 509.817C187.908 604.541 262.673 676.197 257.432 777.734C253.557 852.428 190.641 889.493 182.606 961.952C174.102 1038.84 196.515 1124.92 209.363 1199.57C228.391 1310.25 251.538 1420.6 257.839 1533.05" stroke="white" stroke-miterlimit="10"/>
<path id="Vector_21" d="M128.689 26.7621C122.571 172.157 88.1457 315.382 95.7934 461.558C101.443 568.933 130.178 671.816 128.832 780.059C127.628 876.671 102.319 970.027 100.708 1066.51C98.2611 1222.75 127.955 1376.98 128.75 1533.07" stroke="white" stroke-miterlimit="10"/>
</g>
</svg>
