<svg width="24" height="24" viewBox="0 0 24 24" fill="none" xmlns="http://www.w3.org/2000/svg">
<g id="Outros/verificado">
<path id="Star 1" d="M9.70134 2.79306C9.07138 3.55854 8.10171 3.96019 7.11499 3.86436C5.24979 3.68322 3.68316 5.24985 3.8643 7.11505C3.96013 8.10177 3.55847 9.07144 2.793 9.7014C1.34602 10.8922 1.34602 13.1078 2.793 14.2986C3.55847 14.9285 3.96013 15.8982 3.8643 16.8849C3.68316 18.7501 5.24979 20.3168 7.11499 20.1356C8.10171 20.0398 9.07138 20.4414 9.70134 21.2069C10.8921 22.6539 13.1077 22.6539 14.2985 21.2069C14.9285 20.4414 15.8981 20.0398 16.8849 20.1356C18.7501 20.3168 20.3167 18.7501 20.1355 16.8849C20.0397 15.8982 20.4414 14.9285 21.2068 14.2986C22.6538 13.1078 22.6538 10.8922 21.2068 9.7014C20.4414 9.07144 20.0397 8.10177 20.1355 7.11505C20.3167 5.24985 18.7501 3.68322 16.8849 3.86436C15.8981 3.96019 14.9285 3.55854 14.2985 2.79306C13.1077 1.34608 10.8921 1.34608 9.70134 2.79306Z" fill="#3BD4FF" stroke="#5EEBFF"/>
<g id="Vector 4" filter="url(#filter0_d_116_750)">
<path d="M8 11.5L11 14.5L16.5 9" stroke="white" stroke-width="2" stroke-linecap="round" stroke-linejoin="round"/>
</g>
</g>
<defs>
<filter id="filter0_d_116_750" x="5" y="6" width="14.5" height="11.5" filterUnits="userSpaceOnUse" color-interpolation-filters="sRGB">
<feFlood flood-opacity="0" result="BackgroundImageFix"/>
<feColorMatrix in="SourceAlpha" type="matrix" values="0 0 0 0 0 0 0 0 0 0 0 0 0 0 0 0 0 0 127 0" result="hardAlpha"/>
<feOffset/>
<feGaussianBlur stdDeviation="1"/>
<feComposite in2="hardAlpha" operator="out"/>
<feColorMatrix type="matrix" values="0 0 0 0 0 0 0 0 0 0.338437 0 0 0 0 0.483482 0 0 0 0.4 0"/>
<feBlend mode="normal" in2="BackgroundImageFix" result="effect1_dropShadow_116_750"/>
<feBlend mode="normal" in="SourceGraphic" in2="effect1_dropShadow_116_750" result="shape"/>
</filter>
</defs>
</svg>
