<svg width="24" height="24" viewBox="0 0 24 24" fill="none" xmlns="http://www.w3.org/2000/svg">
<g id="Lineado/bid" clip-path="url(#clip0_137_928)">
<path id="Rectangle 9" d="M9.73081 7.56447C10.0237 7.27158 10.0237 6.79671 9.73081 6.50381C9.43791 6.21092 8.96304 6.21092 8.67015 6.50381L9.73081 7.56447ZM5.76539 17.25C5.35118 17.25 5.01539 17.5858 5.01539 18C5.01539 18.4142 5.35118 18.75 5.76539 18.75L5.76539 17.25ZM10.1663 18.75C10.5805 18.75 10.9163 18.4142 10.9163 18C10.9163 17.5858 10.5805 17.25 10.1663 17.25L10.1663 18.75ZM13.5921 4.41818L15.6909 6.517L16.7516 5.45634L14.6528 3.35752L13.5921 4.41818ZM8.68333 13.5246L7.11088 11.9522L6.05022 13.0128L7.62267 14.5853L8.68333 13.5246ZM12.4392 12.5972L17.2307 17.3887L18.2914 16.328L13.4999 11.5365L12.4392 12.5972ZM19.7056 14.9138L14.9141 10.1223L13.8534 11.1829L18.6449 15.9745L19.7056 14.9138ZM5.76539 18.75L10.1663 18.75L10.1663 17.25L5.76539 17.25L5.76539 18.75ZM12.4392 11.5365L10.738 13.2377L11.7987 14.2983L13.4999 12.5972L12.4392 11.5365ZM10.738 13.2377L10.4511 13.5246L11.5118 14.5853L11.7987 14.2983L10.738 13.2377ZM7.11088 10.1844L7.39783 9.89745L6.33717 8.83679L6.05022 9.12374L7.11088 10.1844ZM7.39783 9.89745L9.73081 7.56447L8.67015 6.50381L6.33717 8.83679L7.39783 9.89745ZM11.7987 13.2377L7.39783 8.83679L6.33717 9.89745L10.738 14.2983L11.7987 13.2377ZM15.6909 8.28477L15.3295 8.64623L16.3901 9.70689L16.7516 9.34543L15.6909 8.28477ZM15.3295 8.64623L12.4392 11.5365L13.4999 12.5972L16.3901 9.70689L15.3295 8.64623ZM11.8164 6.19385L15.3295 9.70689L16.3901 8.64623L12.8771 5.13319L11.8164 6.19385ZM11.8164 3.35752C11.0332 4.14075 11.0332 5.41062 11.8164 6.19385L12.8771 5.13319C12.6797 4.93575 12.6797 4.61562 12.8771 4.41818L11.8164 3.35752ZM19.7056 17.3887C20.389 16.7053 20.389 15.5972 19.7056 14.9138L18.6449 15.9745C18.7426 16.0721 18.7426 16.2304 18.6449 16.328L19.7056 17.3887ZM7.62267 14.5853C8.69661 15.6592 10.4378 15.6592 11.5118 14.5853L10.4511 13.5246C9.96294 14.0128 9.17148 14.0128 8.68333 13.5246L7.62267 14.5853ZM15.6909 6.517C16.1791 7.00515 16.1791 7.79661 15.6909 8.28477L16.7516 9.34543C17.8255 8.27148 17.8255 6.53028 16.7516 5.45634L15.6909 6.517ZM14.6528 3.35752C13.8695 2.57428 12.5997 2.57428 11.8164 3.35752L12.8771 4.41818C13.0745 4.22073 13.3947 4.22073 13.5921 4.41818L14.6528 3.35752ZM17.2307 17.3887C17.9141 18.0721 19.0222 18.0721 19.7056 17.3887L18.6449 16.328C18.5473 16.4256 18.389 16.4256 18.2914 16.328L17.2307 17.3887ZM7.11088 11.9522C6.62273 11.464 6.62273 10.6726 7.11088 10.1844L6.05022 9.12374C4.97628 10.1977 4.97628 11.9389 6.05022 13.0128L7.11088 11.9522Z" fill="#EFEFFF"/>
</g>
<defs>
<clipPath id="clip0_137_928">
<rect width="24" height="24" fill="white"/>
</clipPath>
</defs>
</svg>
