<svg width="24" height="24" viewBox="0 0 24 24" fill="none" xmlns="http://www.w3.org/2000/svg">
<g id="Lineado/eye">
<path id="Ellipse 8" d="M15.6557 8.06813C14.5599 7.44435 13.3171 7 12 7C8.9221 7 6.25017 9.42646 4.91227 10.8987C4.33619 11.5326 4.33619 12.4674 4.91227 13.1013C6.25017 14.5735 8.9221 17 12 17C15.0779 17 17.7498 14.5735 19.0877 13.1013C19.6638 12.4674 19.6629 11.5315 19.0868 10.8976C18.7093 10.4823 18.2257 9.99116 17.6569 9.5M14 12C14 13.1046 13.1046 14 12 14C10.8954 14 10 13.1046 10 12C10 10.8954 10.8954 10 12 10C13.1046 10 14 10.8954 14 12Z" stroke="url(#paint0_linear_105_1911)" stroke-width="1.5" stroke-linecap="round" stroke-linejoin="round"/>
</g>
<defs>
<linearGradient id="paint0_linear_105_1911" x1="4" y1="7" x2="12.9888" y2="21.382" gradientUnits="userSpaceOnUse">
<stop stop-color="#9A4DFF"/>
<stop offset="1" stop-color="#5EEBFF"/>
</linearGradient>
</defs>
</svg>
