<svg width="24" height="24" viewBox="0 0 24 24" fill="none" xmlns="http://www.w3.org/2000/svg">
<g id="Lineado/pen">
<path id="Rectangle 10" d="M17.3032 10.0251L18.7174 8.61093C19.4985 7.82988 19.4985 6.56355 18.7174 5.7825C17.9364 5.00145 16.6701 5.00145 15.889 5.7825L15.1819 6.48961C14.7914 6.88013 14.7914 7.5133 15.1819 7.90382L17.3032 10.0251ZM17.3032 10.0251L11.5055 15.8229C11.3645 15.9639 11.2032 16.083 11.027 16.1763L8.15472 17.6969C7.28439 18.1577 6.34228 17.2155 6.80304 16.3452L8.32368 13.4729C8.41696 13.2967 8.53606 13.1354 8.67704 12.9945L12.707 8.96448" stroke="url(#paint0_linear_105_1919)" stroke-width="1.5" stroke-linecap="round"/>
</g>
<defs>
<linearGradient id="paint0_linear_105_1919" x1="17.3032" y1="4.36829" x2="21.3613" y2="11.003" gradientUnits="userSpaceOnUse">
<stop stop-color="#9A4DFF"/>
<stop offset="1" stop-color="#5EEBFF"/>
</linearGradient>
</defs>
</svg>
