<svg width="24" height="24" viewBox="0 0 24 24" fill="none" xmlns="http://www.w3.org/2000/svg">
<g id="Lineado/wallet">
<path id="Rectangle 8" d="M14.5 9.75C14.9142 9.75 15.25 9.41421 15.25 9C15.25 8.58579 14.9142 8.25 14.5 8.25V9.75ZM17 8.25C16.5858 8.25 16.25 8.58579 16.25 9C16.25 9.41421 16.5858 9.75 17 9.75V8.25ZM9.22858 12.467L8.54249 12.7699L9.22858 12.467ZM14.7714 12.467L15.4575 12.7699L14.7714 12.467ZM19.25 8V16H20.75V8H19.25ZM18 17.25H6V18.75H18V17.25ZM4.75 16V8H3.25V16H4.75ZM6 6.75H18V5.25H6V6.75ZM12 14.75C12.9883 14.75 13.7553 14.511 14.3366 14.1191C14.9154 13.7288 15.2578 13.2221 15.4575 12.7699L14.0853 12.164C13.9744 12.4153 13.7952 12.6751 13.498 12.8754C13.2033 13.0742 12.7399 13.25 12 13.25V14.75ZM16 12.25H20V10.75H16V12.25ZM4 12.25H8V10.75H4V12.25ZM8.54249 12.7699C8.74217 13.2221 9.08455 13.7288 9.66342 14.1191C10.2447 14.511 11.0117 14.75 12 14.75V13.25C11.2601 13.25 10.7967 13.0742 10.502 12.8754C10.2048 12.6751 10.0256 12.4153 9.91467 12.164L8.54249 12.7699ZM4 9.75H14.5V8.25H4V9.75ZM17 9.75H20V8.25H17V9.75ZM8 12.25C8.05759 12.25 8.14293 12.2728 8.25216 12.3656C8.36391 12.4606 8.46971 12.6051 8.54249 12.7699L9.91467 12.164C9.63847 11.5385 8.9855 10.75 8 10.75V12.25ZM6 17.25C5.30964 17.25 4.75 16.6904 4.75 16H3.25C3.25 17.5188 4.48122 18.75 6 18.75V17.25ZM19.25 16C19.25 16.6904 18.6904 17.25 18 17.25V18.75C19.5188 18.75 20.75 17.5188 20.75 16H19.25ZM20.75 8C20.75 6.48122 19.5188 5.25 18 5.25V6.75C18.6904 6.75 19.25 7.30964 19.25 8H20.75ZM15.4575 12.7699C15.5303 12.6051 15.6361 12.4606 15.7478 12.3656C15.8571 12.2728 15.9424 12.25 16 12.25V10.75C15.0145 10.75 14.3615 11.5385 14.0853 12.164L15.4575 12.7699ZM4.75 8C4.75 7.30964 5.30964 6.75 6 6.75V5.25C4.48122 5.25 3.25 6.48122 3.25 8H4.75Z" fill="url(#paint0_linear_105_1925)"/>
</g>
<defs>
<linearGradient id="paint0_linear_105_1925" x1="4" y1="6" x2="15.52" y2="21.36" gradientUnits="userSpaceOnUse">
<stop stop-color="#9A4DFF"/>
<stop offset="1" stop-color="#5EEBFF"/>
</linearGradient>
</defs>
</svg>
